<svg xmlns="http://www.w3.org/2000/svg" viewBox="0 0 100 100">
  <defs>
    <linearGradient id="grad" x1="0%" y1="0%" x2="100%" y2="100%">
      <stop offset="0%" style="stop-color:#4f46e5;stop-opacity:1" />
      <stop offset="100%" style="stop-color:#7c3aed;stop-opacity:1" />
    </linearGradient>
  </defs>
  <rect width="100" height="100" rx="20" fill="url(#grad)"/>
  <path d="M30 25 h40 a5 5 0 0 1 5 5 v40 a5 5 0 0 1 -5 5 h-40 a5 5 0 0 1 -5 -5 v-40 a5 5 0 0 1 5 -5" fill="white"/>
  <rect x="35" y="35" width="30" height="4" rx="2" fill="#4f46e5"/>
  <rect x="35" y="45" width="20" height="3" rx="1.5" fill="#94a3b8"/>
  <rect x="35" y="55" width="25" height="2" rx="1" fill="#cbd5e1"/>
  <rect x="35" y="60" width="22" height="2" rx="1" fill="#cbd5e1"/>
  <rect x="35" y="65" width="28" height="2" rx="1" fill="#cbd5e1"/>
  <circle cx="67" cy="42" r="3" fill="#10b981"/>
</svg>